{"title":"The Ghost Writer.2010.BRRip.480p.H264.FEEL-FREE","uid":5701856,"size":1696698180,"categoryP":"video","categoryS":"movies","magnet":"?xt=urn:btih:2403416c8308d0cd9696f1fc81d880f291906cf4&amp;dn=The+Ghost+Writer.2010.BRRip.480p.H264.FEEL-FREE&amp;tr=udp%3A%2F%2Ftracker.openbittorrent.com%3A80&amp;tr=udp%3A%2F%2Fopen.demonii.com%3A1337&amp;tr=udp%3A%2F%2Ftracker.coppersurfer.tk%3A6969&amp;tr=udp%3A%2F%2Fexodus.desync.com%3A6969","seeders":0,"leechers":0,"uploader":"neon","files":7,"time":1279537744,"description":"Genre:Drama | Mystery | Thriller\nLanguage:English\nIMDb:http://www.imdb.com/title/tt1139328/\nSource:BluRay.X264-AMIABLE\nEncoder: Tony2\n............................................\nGeneral\nComplete name : The.Ghost.Writer.2010.BRRip.480p.H264.FEEL-FREE\nFormat : MPEG-4\nFormat profile : Base Media\nCodec ID : isom\nFile size : 1.58 GiB\nDuration : 2h 8mn\nOverall bit rate : 1 760 Kbps\n.............................................\nVideo\nID : 1\nFormat : AVC\nFormat/Info : Advanced Video Codec\nFormat profile : &lt;a class=&quot;__cf_email__&quot; href=&quot;/cdn-cgi/l/email-protection&quot; data-cfemail=&quot;d092b1a3b5bcb9beb5909ce5fee1&quot;&gt;[email&amp;#160;protected]&lt;/a&gt;&lt;script cf-hash='f9e31' type=&quot;text/javascript&quot;&gt;\n/* &lt;![CDATA[ */!function(){try{var t=&quot;currentScript&quot;in document?document.currentScript:function(){for(var t=document.getElementsByTagName(&quot;script&quot;),e=t.length;e--;)if(t[e].getAttribute(&quot;cf-hash&quot;))return t[e]}();if(t&amp;&amp;t.previousSibling){var e,r,n,i,c=t.previousSibling,a=c.getAttribute(&quot;data-cfemail&quot;);if(a){for(e=&quot;&quot;,r=parseInt(a.substr(0,2),16),n=2;a.length-n;n+=2)i=parseInt(a.substr(n,2),16)^r,e+=String.fromCharCode(i);e=document.createTextNode(e),c.parentNode.replaceChild(e,c)}}}catch(u){}}();/* ]]&gt; */&lt;/script&gt;\nFormat settings, CABAC : No\nFormat settings, ReFrames : 1 frame\nCodec ID : avc1\nCodec ID/Info : Advanced Video Coding\nDuration : 2h 8mn\nBit rate mode : Variable\nBit rate : 1 537 Kbps\nWidth : 720 pixels\nHeight : 304 pixels\nDisplay aspect ratio : 2.35:1\nFrame rate mode : Constant\nFrame rate : 23.976 fps\nResolution : 24 bits\nColorimetry : 4:2:0\nScan type : Progressive\nBits/(Pixel*Frame) : 0.293\nStream size : 1.38 GiB (87%)\n.............................................\n\nAudio\nID : 2\nFormat : AAC\nFormat/Info : Advanced Audio Codec\nFormat version : Version 4\nFormat profile : LC\nFormat settings, SBR : No\nCodec ID : 40\nDuration : 2h 8mn\nBit rate mode : Variable\nBit rate : 218 Kbps\nChannel(s) : 6 channels\nChannel positions : Front: L C R, Rear: L R, LFE\nSampling rate : 48.0 KHz\nResolution : 16 bits\nStream size : 201 MiB (12%)\n............................................\nPlot:\nA ghostwriter hired to complete the memoirs of a former British prime minister uncovers secrets that put his own life in jeopardy","torrent":{"xt":"urn:btih:2403416c8308d0cd9696f1fc81d880f291906cf4","amp;dn":"The+Ghost+Writer.2010.BRRip.480p.H264.FEEL-FREE","amp;tr":["udp%3A%2F%2Ftracker.openbittorrent.com%3A80","udp%3A%2F%2Fopen.demonii.com%3A1337","udp%3A%2F%2Ftracker.coppersurfer.tk%3A6969","udp%3A%2F%2Fexodus.desync.com%3A6969"],"infoHash":"2403416c8308d0cd9696f1fc81d880f291906cf4","infoHashBuffer":{"type":"Buffer","data":[36,3,65,108,131,8,208,205,150,150,241,252,129,216,128,242,145,144,108,244]},"announce":[],"urlList":[]}}